<svg xmlns="http://www.w3.org/2000/svg" viewBox="0 0 800 56" preserveAspectRatio="none" fill="none" stroke="white" stroke-linecap="round" stroke-linejoin="round">
<g stroke-width="1.15">
<path vector-effect="non-scaling-stroke" d="M182 2 121 1.5 64 2.1 2 1.8 1.6 17 2.2 32 1.7 54 80 53.5 130 54M196 2.2 250 1.7 304 2.1M315 1.9 381 2.4 440 1.7M457 2 512 1.8 543 2.3M559 2 620 1.6 681 2.2M697 1.9 758 2.1 798 1.6 798.3 18 797.7 37 798 54 722 53.6 673 54.1M651 53.7 599 54 562 53.5M547 54 490 53.8 447 54.2M424 53.7 370 54.1 331 53.5M312 54 262 53.7 220 54.1M202 53.8 173 54"/>
</g><g stroke-width=".5" opacity=".45"><path vector-effect="non-scaling-stroke" d="M4 5 4.3 23 3.5 47M10 3.2 79 3 117 3.5M209 3.3 251 3.1M460 3.2 495 3M711 3.5 792 3M796 8 795.7 31 796.4 50M786 52 735 52.2M514 52.5 488 52.2M397 52.3 367 52.5M180 52 136 52.4 81 52.1M322 2 325 2M449 2 452 2M687 2 690 2M658 54 662 54M433 54 436 54M213 54 215 54"/></g></svg>