<svg xmlns="http://www.w3.org/2000/svg" viewBox="0 0 64 64" role="img" aria-label="Apple Music">
  <circle cx="32" cy="32" r="28" fill="#f5f5f7"/>
  <path fill="#1d1d1f" d="M39.4 32.9c-.1-4.8 4-7.2 4.2-7.3-2.3-3.4-5.8-3.8-7-3.9-3-.3-5.8 1.8-7.3 1.8s-3.9-1.7-6.4-1.6c-3.3.1-6.3 1.9-8 4.8-3.4 5.9-.9 14.6 2.5 19.4 1.6 2.3 3.6 5 6.1 4.9 2.4-.1 3.4-1.6 6.4-1.6s3.8 1.6 6.4 1.5c2.7-.1 4.4-2.4 6-4.8 1.9-2.7 2.6-5.3 2.7-5.5-.1-.1-5.5-2.1-5.6-7.7z"/>
  <path fill="#1d1d1f" d="M34.6 18.5c1.4-1.7 2.4-4.1 2.1-6.5-2 .1-4.5 1.3-5.9 3-1.3 1.5-2.4 4-2.1 6.3 2.2.2 4.5-1.1 5.9-2.8z"/>
</svg>
