<svg xmlns="http://www.w3.org/2000/svg" viewBox="0 0 64 64" role="img" aria-label="Spotify">
  <circle cx="32" cy="32" r="28" fill="#1db954"/>
  <path fill="#fff" d="M19.5 25.2c9.4-3 20.4-2.1 28.5 2.8 1.6 1 2.1 2.9 1.2 4.4-.9 1.5-2.8 2-4.4 1-6.6-4-15.6-4.8-23.4-2.3-1.8.6-3.5-.4-4-2-.5-1.7.4-3.4 2.1-3.9z"/>
  <path fill="#fff" d="M21.2 34.5c7.5-2.2 15.8-1.4 22.2 2.5 1.2.7 1.6 2.3.9 3.5-.8 1.2-2.3 1.6-3.5.9-5-3-11.9-3.7-18-1.9-1.4.4-2.8-.4-3.2-1.7-.4-1.4.3-2.8 1.6-3.3z"/>
  <path fill="#fff" d="M23.3 43.1c5.3-1.3 11.1-.7 15.6 2.1 1 .6 1.3 1.8.7 2.8-.6 1-1.8 1.3-2.8.7-3.5-2.1-8.2-2.7-12.4-1.6-1.1.3-2.2-.4-2.5-1.5-.3-1.1.3-2.2 1.4-2.5z"/>
</svg>
